# xmcd CD database file
#
# Track frame offsets:
#	150
#	14452
#	28195
#	43680
#	58882
#	73199
#	88214
#	101341
#	116250
#	129543
#	143019
#	157073
#	172246
#	186686
#
# Disc length: 2667 seconds
#
# Revision: 0
# Processed by: cddbd v1.5.2PL0 Copyright (c) Steve Scherf et al.
# Submitted via: CDex 2.17
#
DISCID=d30a690e
DTITLE=Bessie Smith - Empty Bed Blues
DYEAR=2006
DGENRE=Blues
TTITLE0=Cake Walkin' Babies (From Home)
TTITLE1=The Yellow Dog Blues
TTITLE2=Careless Love Blues
TTITLE3=I Ain't Gonna Play No Second Fiddle
TTITLE4=I Ain't Got Nobody
TTITLE5=Jazzbo Brown From Memphis Town
TTITLE6=Lost Your Head Blues
TTITLE7=Back Water Blues
TTITLE8=After You've Gone
TTITLE9=Alexander's Ragtime Band
TTITLE10=Muddy Waters (A Mississippi Moan)
TTITLE11=Send Me To The 'Lectric Chair
TTITLE12=Mean Old Bedbug Blues
TTITLE13=A Good Man Is Hard To Find
EXTD=YEAR: 2006
EXTT0=
EXTT1=
EXTT2=
EXTT3=
EXTT4=
EXTT5=
EXTT6=
EXTT7=
EXTT8=
EXTT9=
EXTT10=
EXTT11=
EXTT12=
EXTT13=
PLAYORDER=
